<svg width="168" height="40" viewBox="0 0 168 40" fill="none" xmlns="http://www.w3.org/2000/svg">
<g clip-path="url(#clip0)">
<path fill-rule="evenodd" clip-rule="evenodd" d="M50.957 0.0307617L50.0318 5.72619H38.8161L32.5473 39.8368L26.1848 39.8872L32.467 5.72619H0.00366211L0.928705 0.0307617H50.957ZM17.3708 5.72619L23.0225 10.0323L16.388 39.8081L9.77111 39.8369L17.3708 5.72619ZM80.5208 14.2839L90.2814 39.6328H84.2857L78.1104 23.6592L72.2603 39.5855L66.269 39.6328L75.5556 14.3013L80.5208 14.2839ZM157.234 14.2839L167.02 39.6328H160.989L159.801 36.556H150.082L148.951 39.6328H142.957L152.269 14.3013L157.234 14.2839ZM52.8072 14.3184C59.7867 14.3184 65.4644 19.9967 65.4644 26.9756C65.4644 33.9551 59.7867 39.6327 52.8072 39.6327C45.8283 39.6327 40.15 33.9551 40.15 26.9756C40.15 19.9967 45.8283 14.3184 52.8072 14.3184ZM132.176 14.0427C135.01 14.0427 137.688 14.9575 139.922 16.6888L136.435 21.1904C135.207 20.2403 133.735 19.7381 132.176 19.7381C128.337 19.7381 125.215 22.8609 125.215 26.6998C125.215 30.5381 128.337 33.6622 132.176 33.6622C133.92 33.6622 135.588 33.0145 136.873 31.8389L140.716 36.0425C138.378 38.1795 135.346 39.357 132.176 39.357C125.197 39.357 119.519 33.6787 119.519 26.6998C119.519 19.7209 125.197 14.0427 132.176 14.0427ZM103.329 14.0423C110.308 14.0423 115.986 19.7207 115.986 26.6996C115.986 33.6791 110.308 39.3568 103.329 39.3568C96.3491 39.3568 90.6715 33.6791 90.6715 26.6996C90.6715 19.7207 96.3491 14.0423 103.329 14.0423ZM52.8072 20.0138C48.9683 20.0138 45.8448 23.1367 45.8448 26.9756C45.8448 30.8145 48.9683 33.9379 52.8072 33.9379C56.6461 33.9379 59.7696 30.8145 59.7696 26.9756C59.7696 23.1367 56.6461 20.0138 52.8072 20.0138ZM103.329 19.7379C99.4891 19.7379 96.3663 22.8607 96.3663 26.6996C96.3663 30.5383 99.4891 33.6618 103.329 33.6618C107.168 33.6618 110.29 30.5383 110.29 26.6996C110.29 22.8607 107.168 19.7379 103.329 19.7379ZM154.824 23.6592L151.736 32.0596H158.066L154.824 23.6592Z" fill="black"/>
</g>
<defs>
<clipPath id="clip0">
<rect width="167.087" height="40" fill="white"/>
</clipPath>
</defs>
</svg>
