<svg viewBox="0 0 161 48" fill="none" xmlns="http://www.w3.org/2000/svg">
<path d="M21.9025 0H23.1557V4.91681L30.7017 0C34.5337 2.4086 37.1762 4.33729 38.6291 5.78608C40.1002 7.23486 41.0627 8.5931 41.5168 9.86078C41.9889 11.1285 42.225 12.9938 42.225 15.4567V32.7606L33.8345 40.1766C31.6007 39.2711 29.6665 38.6101 28.032 38.1935C26.3975 37.777 24.772 37.5054 23.1557 37.3786V48H12.9944V36.8896C10.2702 37.0526 8.01822 37.4601 6.23841 38.1121C4.4586 38.764 2.66971 39.8053 0.871743 41.236L0 40.1766C2.4881 37.4782 4.63113 35.5857 6.4291 34.4991C8.22707 33.4126 10.4155 32.6067 12.9944 32.0815C12.9763 29.6186 12.6584 27.6446 12.0409 26.1596C11.4235 24.6565 10.3065 23.2982 8.69019 22.0849C7.07383 20.8534 5.01252 19.9027 2.50626 19.2326V18.0917C3.79571 17.4578 4.93988 16.8149 5.93875 16.163L12.9944 11.545V9.64346C12.9944 7.8687 12.8219 6.57385 12.4768 5.75891C12.1318 4.92586 11.487 4.23769 10.5426 3.6944C9.59825 3.1511 8.55398 2.87946 7.40981 2.87946C6.15668 2.87946 4.75826 3.34126 3.21455 4.26486L2.50626 3.42275C3.77755 2.24561 5.0216 1.3854 6.23841 0.842105C7.47338 0.280702 8.83548 0 10.3247 0C11.9774 0 13.4757 0.353141 14.8196 1.05942C16.1817 1.74759 17.1443 2.61686 17.7073 3.66723C18.2884 4.69949 18.5972 6.103 18.6335 7.87776L21.9025 5.67742V0ZM23.1557 15.1579C24.5178 16.0634 25.6983 16.6882 26.6971 17.0323C27.7142 17.3763 28.7948 17.5484 29.9389 17.5484C31.0831 17.5484 32.1637 17.3763 33.1807 17.0323C34.2159 16.6882 35.4236 16.0634 36.8039 15.1579C36.7857 13.6005 36.5496 12.3056 36.0956 11.2733C35.6416 10.2411 34.6699 9.12733 33.1807 7.93209C31.7096 6.73684 29.5394 5.42388 26.6699 3.99321L23.1557 6.32937V15.1579ZM21.9025 7.14431L18.6335 9.31749V46.8048H21.9025V7.14431ZM12.9944 13.0662L7.05567 16.9779C8.29064 17.5212 9.34399 18.1007 10.2157 18.7165C11.0875 19.3141 12.0137 20.1109 12.9944 21.107V13.0662ZM23.1557 25.0187C24.6086 24.2218 25.8435 23.6695 26.8606 23.3616C27.8958 23.0538 28.9491 22.8998 30.0206 22.8998C31.0922 22.8998 32.1183 23.0538 33.099 23.3616C34.0979 23.6514 35.3328 24.2037 36.8039 25.0187V16.5705C35.2965 17.4397 34.0343 18.0283 33.0173 18.3362C32.0184 18.6259 30.9287 18.7708 29.7482 18.7708C28.6222 18.7708 27.587 18.635 26.6426 18.3633C25.6983 18.0917 24.5359 17.5574 23.1557 16.7606V25.0187ZM23.1557 32.0815C25.2987 32.1539 27.4054 32.4709 29.4758 33.0323C31.5644 33.5756 34.007 34.5082 36.8039 35.8302V26.5671C35.4418 25.6435 34.2613 25.0187 33.2624 24.6927C32.2636 24.3486 31.183 24.1766 30.0206 24.1766C28.8583 24.1766 27.7686 24.3486 26.7516 24.6927C25.7527 25.0187 24.5541 25.6435 23.1557 26.5671V32.0815Z" fill="black"/>
<path d="M67.5328 15.1851V35.5042C64.8086 36.6089 62.8381 37.5144 61.6213 38.2207C60.6951 38.7459 59.8052 39.3979 58.9516 40.1766C56.3182 38.5829 54.1389 37.4782 52.4135 36.8625C51.1059 36.3916 49.6258 36.12 47.9731 36.0475L47.7007 35.5042C48.3908 34.9247 48.8267 34.3995 49.0083 33.9287C49.2626 33.313 49.3897 32.2716 49.3897 30.8048V15.8913C52.7132 14.7866 55.5554 13.2292 57.9164 11.219C60.4953 12.9213 63.7008 14.2434 67.5328 15.1851ZM54.8926 32.8693L62.0027 35.7759V18.4992C59.7689 17.4669 58.1888 16.7878 57.2626 16.4618C56.6088 16.2264 55.8188 16.0272 54.8926 15.8642V32.8693Z" fill="black"/>
<path d="M84.5863 1.24958V1.95586C83.1516 2.69836 82.1345 3.6129 81.5352 4.69949C80.954 5.76797 80.6635 7.39785 80.6635 9.58913V33.7385L83.769 36.0475L84.9677 35.0696L85.6487 36.0475L80.2003 40.1766C78.5477 38.7459 77.3127 37.7951 76.4954 37.3243C75.6782 36.8534 74.5976 36.4278 73.2536 36.0475V35.4499C73.7622 35.142 74.1526 34.7527 74.425 34.2818C74.7156 33.811 74.9154 33.2586 75.0244 32.6248C75.0607 32.4075 75.0879 31.3209 75.1061 29.365V9.96944C75.1061 8.32145 75.0425 7.18053 74.9154 6.54669C74.7883 5.89474 74.534 5.279 74.1526 4.69949C73.7712 4.10187 73.1265 3.44086 72.2184 2.71647L72.6543 2.17317C74.307 2.64403 75.7871 3.60385 77.0948 5.05263C78.4569 3.62196 79.6827 2.64403 80.7724 2.11885C81.8803 1.59366 83.1516 1.3039 84.5863 1.24958Z" fill="black"/>
<path d="M108.232 15.1851V35.5042C105.508 36.6089 103.538 37.5144 102.321 38.2207C101.395 38.7459 100.505 39.3979 99.6511 40.1766C97.0177 38.5829 94.8384 37.4782 93.113 36.8625C91.8054 36.3916 90.3253 36.12 88.6726 36.0475L88.4002 35.5042C89.0903 34.9247 89.5262 34.3995 89.7078 33.9287C89.962 33.313 90.0892 32.2716 90.0892 30.8048V15.8913C93.4127 14.7866 96.2549 13.2292 98.6159 11.219C101.195 12.9213 104.4 14.2434 108.232 15.1851ZM95.592 32.8693L102.702 35.7759V18.4992C100.468 17.4669 98.8883 16.7878 97.9621 16.4618C97.3083 16.2264 96.5183 16.0272 95.592 15.8642V32.8693Z" fill="black"/>
<path d="M127.656 21.2971L133.949 24.584V36.0204C132.423 36.1653 131.043 36.5365 129.808 37.1341C128.573 37.7317 127.175 38.7459 125.613 40.1766C124.269 39.3797 123.097 38.8274 122.098 38.5195C121.118 38.2117 120.073 38.0577 118.966 38.0577C117.258 38.0577 115.742 38.5739 114.416 39.6061C113.926 39.9864 113.572 40.1766 113.354 40.1766C113.154 40.1766 112.954 40.077 112.754 39.8778C112.555 39.6786 112.455 39.4793 112.455 39.2801C112.455 39.0628 112.646 38.7731 113.027 38.4109C113.245 38.1935 113.617 37.777 114.144 37.1613L116.623 34.0917L120.137 29.4465L114.171 26.2411V16.1087C116.042 15.5291 117.504 14.8862 118.557 14.18C119.629 13.4556 120.655 12.4686 121.635 11.219C123.96 12.1969 125.831 12.8851 127.247 13.2835C128.264 13.5552 129.236 13.691 130.162 13.691C131.179 13.691 131.969 13.4737 132.532 13.039C133.095 12.5863 133.377 12.1154 133.377 11.6265C133.377 11.3005 133.195 10.9745 132.832 10.6486C132.124 10.0147 131.769 9.39898 131.769 8.80136C131.769 8.23995 131.924 7.79626 132.232 7.47029C132.541 7.1262 132.886 6.95416 133.268 6.95416C133.776 6.95416 134.23 7.18959 134.63 7.66044C135.047 8.11319 135.256 8.71986 135.256 9.48048C135.256 10.2592 135.093 11.0198 134.766 11.7623C134.439 12.5048 133.813 13.4646 132.886 14.6418L127.656 21.2971ZM119.674 23.1715L123.406 25.1002L129.345 17.2224C128.128 17.5665 127.075 17.7385 126.185 17.7385C123.951 17.7385 121.781 16.996 119.674 15.511V23.1715ZM124.36 25.6435L117.794 34.4177C118.593 34.146 119.338 33.9468 120.028 33.82C120.718 33.6933 121.345 33.6299 121.908 33.6299C123.996 33.6299 126.167 34.3181 128.419 35.6944V27.8166L124.36 25.6435Z" fill="black"/>
<path d="M158.194 12.3871L159.175 12.7674C158.194 14.2886 157.568 15.4567 157.295 16.2716C157.041 17.0685 156.914 18.1551 156.914 19.5314V31.1036C156.914 33.0232 157.059 34.2275 157.35 34.7165C157.658 35.1873 158.022 35.4227 158.439 35.4227C158.657 35.4227 158.884 35.3684 159.12 35.2598C159.266 35.1692 159.692 34.8432 160.401 34.2818L161 35.1783L154.925 40.1766C153.527 39.09 152.591 38.1211 152.119 37.2699C151.647 36.4007 151.384 35.1964 151.329 33.657L143.048 40.1766C139.942 37.6412 138.389 35.142 138.389 32.6791C138.389 31.0311 138.725 29.4827 139.397 28.034C140.287 26.1324 141.822 23.914 144.001 21.3786L140.732 14.4244L141.113 13.6638C141.822 13.7363 142.348 13.7725 142.693 13.7725C144.836 13.7725 146.725 12.9213 148.36 11.219C149.686 11.9977 151.129 12.6225 152.691 13.0934C154.271 13.5642 155.479 13.7997 156.314 13.7997C156.696 13.7997 156.986 13.7363 157.186 13.6095C157.386 13.4646 157.722 13.0572 158.194 12.3871ZM151.329 17.5756L142.012 14.7233L145.336 21.7317L151.329 24.5297V17.5756ZM151.329 25.6435L144.737 22.5739C143.72 24.7832 143.211 26.721 143.211 28.3871C143.211 31.3209 144.546 33.7385 147.216 35.6401L151.329 32.326V25.6435Z" fill="black"/>
</svg>
